<?xml version="1.0" encoding="UTF-8"?><svg id="Layer_1" xmlns="http://www.w3.org/2000/svg" viewBox="0 0 32 32"><path d="M26.19,10.24c-2.45,0-4.44,1.99-4.44,4.44,0,2.01,1.34,3.72,3.18,4.26v10.54h-7.67V8.7c1.84-.55,3.18-2.25,3.18-4.26,0-2.45-1.99-4.44-4.44-4.44s-4.44,1.99-4.44,4.44c0,2.01,1.34,3.72,3.18,4.26v20.77h-7.67v-13.95c1.84-.55,3.18-2.25,3.18-4.26,0-2.45-1.99-4.44-4.44-4.44s-4.44,1.99-4.44,4.44c0,2.01,1.34,3.72,3.18,4.26v15.02c0,.8.65,1.45,1.45,1.45h20c.8,0,1.45-.65,1.45-1.45v-11.61c1.84-.55,3.18-2.25,3.18-4.26,0-2.45-1.99-4.44-4.44-4.44ZM13.62,4.44c0-1.31,1.07-2.38,2.38-2.38s2.38,1.07,2.38,2.38-1.07,2.38-2.38,2.38-2.38-1.07-2.38-2.38ZM3.43,11.27c0-1.31,1.07-2.38,2.38-2.38s2.38,1.07,2.38,2.38-1.07,2.38-2.38,2.38-2.38-1.07-2.38-2.38ZM26.19,17.06c-1.31,0-2.38-1.07-2.38-2.38s1.07-2.38,2.38-2.38,2.38,1.07,2.38,2.38-1.07,2.38-2.38,2.38Z"/></svg>